<svg xmlns="http://www.w3.org/2000/svg" viewBox="0 0 12.09 7.001"><defs><style>.cls-1{fill:#b1b1b1;fill-rule:evenodd}</style></defs><g id="chevron22" transform="translate(-613.955 -472)"><path id="Shape" class="cls-1" d="M12.75-4.9L7.706-.264A1.041 1.041 0 0 1 7 0a1 1 0 0 1-.7-.264L1.25-4.9a.851.851 0 0 1-.295-.649.816.816 0 0 1 .295-.642l.582-.535A.963.963 0 0 1 2.531-7a.964.964 0 0 1 .7.271L7-3.272l3.771-3.457A.963.963 0 0 1 11.47-7a1.008 1.008 0 0 1 .706.271l.582.535a.839.839 0 0 1 .287.642.85.85 0 0 1-.295.649z" transform="translate(613 479)"/></g></svg>